<svg xmlns="http://www.w3.org/2000/svg" viewBox="0 0 24 24" fill="currentColor">
  <path d="M4.98 3.5a2.5 2.5 0 1 0 0 5 2.5 2.5 0 0 0 0-5zM3 21h4V9H3v12zM9 9h3.8v1.6h.05c.53-1 1.83-2.05 3.77-2.05 4.03 0 4.78 2.65 4.78 6.1V21h-4v-5.4c0-1.3-.03-3-1.83-3s-2.1 1.43-2.1 2.9V21H9V9z"/>
</svg>
<svg xmlns="http://www.w3.org/2000/svg" viewBox="0 0 24 24" fill="currentColor">
  <path d="M7 2C4.24 2 2 4.24 2 7v10c0 2.76 2.24 5 5 5h10c2.76 0 5-2.24 5-5V7c0-2.76-2.24-5-5-5H7zm10 2a3 3 0 0 1 3 3v10a3 3 0 0 1-3 3H7a3 3 0 0 1-3-3V7a3 3 0 0 1 3-3h10zm-5 3a5 5 0 1 0 0 10 5 5 0 0 0 0-10zm0 2a3 3 0 1 1 0 6 3 3 0 0 1 0-6zm4.5-.9a1.1 1.1 0 1 0 0 2.2 1.1 1.1 0 0 0 0-2.2z"/>
</svg>
<svg xmlns="http://www.w3.org/2000/svg" viewBox="0 0 24 24" fill="currentColor">
  <path d="M13 3h4V0h-4c-3.3 0-6 2.7-6 6v3H4v4h3v11h4V13h3.1l.9-4H11V6c0-1.1.9-2 2-2z"/>
</svg>
